<svg width="266" height="355" viewBox="0 0 266 355" fill="none" xmlns="http://www.w3.org/2000/svg">
<path d="M90.5375 167.624C90.7556 167.61 90.9737 167.6 91.1918 167.592C117.059 166.779 185.242 168.765 204.242 186.672C207.03 189.301 208.883 192.734 208.939 196.616C208.997 200.665 207.058 204.228 204.276 207.053C188.611 222.949 140.24 226.927 118.474 227.024C115.314 227.034 112.155 227.216 108.995 227.246C105.531 227.279 102.072 227.118 98.6099 227.062C95.4801 227.011 92.3401 227.081 89.213 226.966C67.7669 226.178 21.8272 222.925 5.75843 208.466C2.45389 205.492 0.198796 202.079 0.00998522 197.539C-0.145241 193.809 1.52379 190.333 4.00868 187.629C14.4463 176.271 45.9269 171.253 61.3434 169.566C71.0796 168.5 80.7577 168.019 90.5375 167.624ZM116.886 215.987C133.957 215.85 183.702 211.674 195.176 199.811C195.88 199.081 196.471 198.202 196.456 197.149C196.436 195.8 195.379 194.592 194.417 193.744C191.57 191.233 187.389 189.699 183.852 188.455C176.857 185.994 169.492 184.478 162.199 183.195C142.444 179.719 122.323 178.562 102.289 178.551C98.7342 178.549 95.1188 178.441 91.5712 178.688C82.9476 179.174 74.3865 179.55 65.7845 180.445C54.2086 181.649 20.9713 186.446 13.4605 194.68C12.8022 195.402 12.2281 196.312 12.2635 197.325C12.3064 198.552 13.3742 199.727 14.2683 200.484C18.034 203.676 23.5688 205.535 28.1917 207.034C54.1016 215.432 89.5853 216.927 116.886 215.987Z" fill="black"/>
<path d="M233.18 202.884C233.891 202.773 235.152 202.766 235.902 202.787C251.577 203.231 263.331 215.621 265.514 230.702C267.594 245.148 262.841 259.36 254.255 270.932C237.942 292.922 214.428 301.194 188.438 305.077C185.422 310.764 181.905 316.169 177.929 321.231C163.382 339.57 143.936 351.371 120.546 354.16C96.5288 357.024 74.74 350.457 55.9113 335.259C26.4374 311.469 6.1558 267.996 2.01714 230.748C1.27972 227.218 1.76346 222.968 6.06829 222.233C7.59737 221.987 9.16171 222.357 10.4172 223.265C13.3773 225.392 13.3268 231.145 14.0167 234.882C20.3587 269.245 40.2166 309.839 69.1395 330.198C84.2673 341.037 103.089 345.405 121.446 342.341C144.666 338.302 161.328 324.195 174.552 305.432C166.266 305.728 151.863 304.231 144.516 299.544C141.465 297.597 142.326 290.686 146.329 290.211C150.06 289.77 154.506 291.576 158.373 292.267C165.895 293.606 173.076 293.86 180.708 293.646C182.362 290.348 184.51 284.344 185.868 280.807C189.965 270.095 193.794 259.282 197.351 248.38C203.96 228.535 208.293 205.404 233.18 202.884ZM194.542 292.511C200.193 291.267 204.205 290.136 209.637 288.269C220.838 284.055 230.914 278.14 239.349 269.609C249.935 258.904 257.841 242.285 252.372 227.252C249.676 219.835 242.791 214.876 234.853 215.088C219.309 215.828 215.362 231.898 211.408 243.971C209.22 250.664 206.984 257.341 204.698 264.001C202.456 270.455 200.172 276.894 197.851 283.318C197.046 285.549 195.066 290.492 194.542 292.511Z" fill="black"/>
<path d="M112.253 0.0587349C115.031 -0.19439 118.098 0.274671 119.162 3.37878C120.316 6.74236 117.224 10.0587 115.515 12.7369C114.483 14.3334 113.569 16.003 112.781 17.7326C109.58 24.6537 108.543 31.5215 108.975 39.0816C110.218 60.8235 127.437 71.9252 134.469 91.1254C139.172 103.781 138.618 117.791 132.93 130.036C129.473 137.353 124.638 143.934 118.69 149.422C116.912 151.085 114.876 152.932 112.578 153.776C111.494 153.865 109.628 153.946 108.726 153.321C100.969 147.947 108.934 142.594 112.093 139.446C115.904 135.661 119.088 131.292 121.524 126.505C132.618 104.305 120.956 88.2419 108.034 70.7448C104.745 66.2913 101.294 59.2143 99.5459 53.9404C94.9585 39.9084 96.1182 24.6309 102.77 11.4515C104.552 7.93317 108.454 1.31035 112.253 0.0587349Z" fill="black"/>
<path d="M81.9108 58.6102C83.1631 58.4877 84.5471 58.4529 85.7024 59.0636C90.3723 61.5325 88.4542 66.2023 88.6159 70.3192C88.7243 73.0718 89.3412 75.7627 90.3317 78.2298C92.4688 83.5531 95.8608 86.7719 99.5484 91.0064C103.001 94.9708 106.315 99.441 108.146 104.445C109.972 109.435 110.486 115.608 108.34 120.614C107.591 122.361 106.34 123.26 104.594 123.872C97.6652 124.628 97.2223 119.65 97.7018 114.479C97.7886 113.542 97.4687 111.875 97.2805 110.947C95.778 103.535 90.17 98.5417 85.4923 93.0527C82.2192 89.0584 79.3908 84.3035 77.9874 79.3129C76.413 73.7111 74.6597 60.5785 81.9108 58.6102Z" fill="black"/>
</svg>
